<svg width="59" height="18" viewBox="0 0 59 18" fill="none" xmlns="http://www.w3.org/2000/svg">
<path d="M2.06105 16.9563C2.06133 17.0695 2.04276 17.1819 2.00611 17.2887C1.97046 17.3931 1.91735 17.4905 1.84914 17.5764L2.04378 17.7714L1.82088 18L1.62153 17.7938C1.53742 17.8523 1.44542 17.8981 1.34839 17.9297C1.2471 17.9635 1.14105 17.9802 1.03445 17.9792C0.898077 17.9807 0.762874 17.9535 0.637309 17.8993C0.393165 17.7959 0.197529 17.6007 0.0910446 17.3543C0.0380193 17.228 0.0106812 17.092 0.0106812 16.9547C0.0106812 16.8173 0.0380193 16.6814 0.0910446 16.5551C0.195529 16.3069 0.391761 16.1105 0.637309 16.0084C0.762773 15.9537 0.897971 15.926 1.03445 15.9269C1.17142 15.9261 1.3071 15.9539 1.43316 16.0084C1.67871 16.1105 1.87494 16.3069 1.97942 16.5551C2.03311 16.6812 2.06038 16.8173 2.05948 16.9547L2.06105 16.9563ZM1.69216 16.9547C1.69257 16.8662 1.67494 16.7785 1.64036 16.6973C1.60707 16.6179 1.55911 16.5458 1.49909 16.4848C1.43991 16.4224 1.36888 16.3729 1.29031 16.3393C1.20934 16.3045 1.12234 16.2866 1.03445 16.2866C0.946555 16.2866 0.859553 16.3045 0.778583 16.3393C0.622479 16.4102 0.498537 16.5387 0.431675 16.6989C0.364697 16.8637 0.364697 17.0488 0.431675 17.2136C0.465409 17.2923 0.513328 17.3639 0.57295 17.4246C0.633147 17.4853 0.703949 17.5341 0.781723 17.5684C0.862523 17.6038 0.949639 17.6218 1.03759 17.6212C1.09712 17.6217 1.15638 17.613 1.2134 17.5956C1.26849 17.5799 1.32128 17.5568 1.37037 17.5269L1.18828 17.3463L1.41275 17.1193L1.5917 17.3079C1.6587 17.2034 1.69417 17.0811 1.69373 16.9563" fill="#003470"/>
<path d="M5.20991 15.9269V16.9994C5.21053 17.1249 5.19091 17.2496 5.15183 17.3686C5.11464 17.4756 5.05762 17.5744 4.98387 17.6595C4.90888 17.7453 4.81685 17.814 4.71388 17.8609C4.59938 17.9108 4.47578 17.9353 4.35127 17.9328C4.228 17.9345 4.10568 17.9106 3.9918 17.8625C3.88836 17.817 3.79535 17.75 3.71867 17.6659C3.64113 17.5786 3.58138 17.4764 3.54286 17.3654C3.50122 17.2487 3.48049 17.1252 3.48164 17.001V15.9269H3.85838V17.0154C3.85822 17.088 3.8688 17.1602 3.88977 17.2296C3.9098 17.293 3.9412 17.352 3.98239 17.4038C4.02524 17.4544 4.07895 17.4943 4.13936 17.5205C4.2045 17.5501 4.27523 17.5648 4.34656 17.5636C4.4202 17.5658 4.49347 17.5522 4.56161 17.5237C4.62258 17.4993 4.67656 17.4597 4.71859 17.4086C4.75953 17.3584 4.78998 17.3002 4.80806 17.2376C4.82937 17.1672 4.83996 17.0938 4.83946 17.0202V15.9269H5.20991Z" fill="#003470"/>
<path d="M8.52518 17.8993H8.11235L7.9334 17.5029H6.99156L6.80947 17.8993H6.39664L7.31336 15.9269H7.60689L8.52518 17.8993ZM7.78427 17.1832L7.47033 16.4719L7.14226 17.1832H7.78427Z" fill="#003470"/>
<path d="M11.4904 17.9057H11.1199L10.244 16.5183V17.9057H9.87512V15.9269H10.2974L11.1199 17.2168V15.9269H11.4904V17.9057Z" fill="#003470"/>
<path d="M14.3426 16.269H13.8057V17.9041H13.4243V16.269H12.8875V15.9269H14.3426V16.269Z" fill="#003470"/>
<path d="M16.1164 15.9269H15.7396V17.9041H16.1164V15.9269Z" fill="#003470"/>
<path d="M19.2495 17.9057H18.8806L18.0032 16.5183V17.9057H17.6343V15.9269H18.0565L18.8806 17.2168V15.9269H19.2495V17.9057Z" fill="#003470"/>
<path d="M22.0515 16.2562H21.1379V16.7165H22.0389V17.0282H21.1379V17.9041H20.769V15.9269H22.0515V16.2562Z" fill="#003470"/>
<path d="M25.4358 16.9563C25.4368 17.0939 25.409 17.2301 25.3542 17.3559C25.3007 17.4756 25.2256 17.584 25.1329 17.6755C25.0375 17.7683 24.9264 17.8425 24.8048 17.8945C24.5493 18.0011 24.2629 18.0011 24.0074 17.8945C23.8854 17.8433 23.7741 17.769 23.6793 17.6755C23.5858 17.5843 23.5101 17.4758 23.4564 17.3559C23.402 17.2294 23.3742 17.0927 23.3748 16.9547C23.3744 16.8156 23.4022 16.6779 23.4564 16.5503C23.5635 16.303 23.7612 16.108 24.0074 16.0068C24.2629 15.9003 24.5493 15.9003 24.8048 16.0068C25.0507 16.1087 25.2478 16.3043 25.3542 16.5519C25.4093 16.6787 25.4371 16.816 25.4358 16.9547V16.9563ZM25.0591 16.9547C25.0596 16.8667 25.042 16.7795 25.0073 16.6989C24.9751 16.6198 24.9276 16.548 24.8676 16.488C24.8079 16.4272 24.7377 16.3784 24.6604 16.3441C24.5797 16.3093 24.4929 16.2914 24.4053 16.2914C24.3177 16.2914 24.2309 16.3093 24.1502 16.3441C24.0729 16.3784 24.0026 16.4272 23.943 16.488C23.8835 16.5484 23.8361 16.6201 23.8033 16.6989C23.7689 16.7794 23.7512 16.8662 23.7512 16.9539C23.7512 17.0416 23.7689 17.1284 23.8033 17.2088C23.8355 17.288 23.883 17.3597 23.943 17.4198C24.0026 17.4805 24.0729 17.5293 24.1502 17.5636C24.2306 17.5995 24.3175 17.618 24.4053 17.618C24.4931 17.618 24.5799 17.5995 24.6604 17.5636C24.7377 17.5293 24.8079 17.4805 24.8676 17.4198C24.9279 17.36 24.9755 17.2882 25.0073 17.2088C25.0417 17.1287 25.0593 17.0421 25.0591 16.9547" fill="#003470"/>
<path d="M30.1371 16.269H29.6003V17.9041H29.2173V16.269H28.682V15.9269H30.1371V16.269Z" fill="#003470"/>
<path d="M32.8166 17.9041H31.5342V15.9269H32.8166V16.2434H31.9031V16.7165H32.8041V17.025H31.9031V17.57H32.8166V17.9041Z" fill="#003470"/>
<path d="M36.0377 17.5701C35.9411 17.6897 35.8207 17.7871 35.6845 17.8562C35.5424 17.9288 35.3852 17.9655 35.2262 17.9633C35.0873 17.9641 34.9497 17.9369 34.8212 17.8833C34.6985 17.8325 34.5866 17.7582 34.4915 17.6644C34.398 17.5735 34.3228 17.4649 34.2702 17.3447C34.2181 17.2182 34.1912 17.0823 34.1912 16.9451C34.1912 16.8079 34.2181 16.672 34.2702 16.5455C34.3228 16.4253 34.398 16.3167 34.4915 16.2258C34.5862 16.1315 34.6982 16.0571 34.8212 16.0069C34.9497 15.9533 35.0873 15.9261 35.2262 15.927C35.3851 15.9254 35.5421 15.9621 35.6845 16.034C35.8178 16.1006 35.936 16.1948 36.0314 16.3106L35.7709 16.5839C35.7107 16.4956 35.6312 16.4228 35.5385 16.3713C35.4518 16.3239 35.3558 16.2968 35.2574 16.2921C35.1591 16.2874 35.061 16.3052 34.9703 16.3441C34.8918 16.378 34.8205 16.4268 34.76 16.488C34.7 16.5484 34.652 16.62 34.6187 16.699C34.5835 16.7789 34.5653 16.8655 34.5653 16.9531C34.5653 17.0407 34.5835 17.1273 34.6187 17.2072C34.6876 17.3627 34.8114 17.4859 34.9656 17.5525C35.0464 17.5877 35.1335 17.6057 35.2215 17.6052C35.3316 17.6069 35.4401 17.5782 35.5354 17.5221C35.6273 17.4674 35.7061 17.3926 35.7662 17.3031L36.0377 17.5701Z" fill="#003470"/>
<path d="M38.9072 17.9041H38.5304V17.0282H37.766V17.9041H37.3893V15.9269H37.766V16.7117H38.5304V15.9269H38.9072V17.9041Z" fill="#003470"/>
<path d="M42.0419 17.9057H41.6731L40.7956 16.5183V17.9057H40.4267V15.9269H40.849L41.6731 17.2168V15.9269H42.0419V17.9057Z" fill="#003470"/>
<path d="M45.5471 16.9502C45.5481 17.0878 45.5203 17.224 45.4655 17.3498C45.4131 17.4701 45.3379 17.5788 45.2442 17.6694C45.1491 17.7625 45.0379 17.8368 44.9161 17.8884C44.6611 17.9949 44.3752 17.9949 44.1202 17.8884C43.998 17.8368 43.8862 17.7626 43.7906 17.6694C43.6971 17.5782 43.6214 17.4697 43.5677 17.3498C43.5138 17.2232 43.4866 17.0865 43.4876 16.9486C43.4867 16.8096 43.514 16.6719 43.5677 16.5442C43.6214 16.4242 43.6971 16.3157 43.7906 16.2245C43.8859 16.1314 43.9978 16.0576 44.1202 16.0072C44.3082 15.9283 44.5146 15.907 44.7143 15.9458C44.914 15.9847 45.0981 16.0822 45.2442 16.2261C45.3377 16.317 45.4129 16.4256 45.4655 16.5458C45.5206 16.6726 45.5484 16.8099 45.5471 16.9486V16.9502ZM45.1704 16.9486C45.1715 16.8607 45.1544 16.7735 45.1202 16.6928C45.0868 16.6143 45.0394 16.5428 44.9804 16.4819C44.9205 16.4207 44.8497 16.3719 44.7717 16.338C44.6919 16.3028 44.6059 16.2848 44.5189 16.2853C44.431 16.2847 44.3439 16.3026 44.2631 16.338C44.1851 16.3719 44.1142 16.4207 44.0543 16.4819C43.9953 16.5428 43.9479 16.6143 43.9146 16.6928C43.8815 16.7736 43.8644 16.8603 43.8644 16.9478C43.8644 17.0353 43.8815 17.1219 43.9146 17.2027C43.9814 17.3624 44.1062 17.4896 44.2631 17.5575C44.3435 17.5942 44.4308 17.6127 44.5189 17.6119C44.6061 17.6125 44.6923 17.594 44.7717 17.5575C44.9285 17.4896 45.0534 17.3624 45.1202 17.2027C45.1541 17.1225 45.1712 17.0359 45.1704 16.9486" fill="#003470"/>
<path d="M48.3098 17.9041H46.996V15.9269H47.379V17.5333H48.3098V17.9041Z" fill="#003470"/>
<path d="M51.5419 16.9525C51.5421 17.09 51.5143 17.2261 51.4603 17.3521C51.4067 17.4722 51.3311 17.5807 51.2374 17.6718C51.1429 17.7648 51.0321 17.8391 50.9108 17.8907C50.6553 17.9973 50.3689 17.9973 50.1134 17.8907C49.9912 17.8391 49.8794 17.7649 49.7838 17.6718C49.6907 17.5805 49.6156 17.472 49.5625 17.3521C49.5072 17.2259 49.4793 17.0891 49.4808 16.9509C49.4797 16.8118 49.5075 16.6739 49.5625 16.5465C49.6156 16.4266 49.6907 16.3181 49.7838 16.2269C49.9786 16.0345 50.2392 15.9269 50.5106 15.9269C50.7819 15.9269 51.0426 16.0345 51.2374 16.2269C51.3309 16.3181 51.4065 16.4265 51.4603 16.5465C51.5146 16.6736 51.5424 16.8107 51.5419 16.9493V16.9525ZM51.1651 16.9493C51.1657 16.8613 51.1481 16.7742 51.1133 16.6936C51.0806 16.6147 51.0331 16.5431 50.9736 16.4826C50.9137 16.4215 50.8429 16.3726 50.7649 16.3387C50.6829 16.3037 50.5947 16.2869 50.5059 16.2892C50.4179 16.2886 50.3308 16.3066 50.25 16.3419C50.1727 16.3763 50.1024 16.4251 50.0428 16.4858C49.9828 16.5459 49.9353 16.6176 49.9031 16.6968C49.8532 16.8174 49.8398 16.9505 49.8647 17.0789C49.8896 17.2074 49.9516 17.3253 50.0428 17.4176C50.1024 17.4783 50.1727 17.5271 50.25 17.5615C50.3304 17.5981 50.4177 17.6167 50.5059 17.6158C50.593 17.6167 50.6792 17.5981 50.7586 17.5615C50.8366 17.5276 50.9075 17.4787 50.9674 17.4176C51.0273 17.3575 51.0748 17.2858 51.1071 17.2066C51.1415 17.1265 51.1591 17.04 51.1589 16.9525" fill="#003470"/>
<path d="M54.7771 17.5685C54.7247 17.6357 54.6646 17.6963 54.5981 17.7491C54.5344 17.7975 54.466 17.8392 54.3941 17.8738C54.3252 17.9056 54.2531 17.9297 54.179 17.9457C53.969 17.9915 53.7502 17.972 53.5511 17.8897C53.4285 17.8397 53.3165 17.7659 53.2215 17.6724C53.1271 17.5815 53.0509 17.473 52.997 17.3527C52.9417 17.2248 52.9139 17.0864 52.9154 16.9467C52.9141 16.8091 52.942 16.6728 52.997 16.5471C53.0497 16.4265 53.1255 16.3178 53.2199 16.2275C53.3157 16.1338 53.4281 16.0595 53.5511 16.0085C53.6799 15.9538 53.8182 15.926 53.9577 15.927C54.1153 15.9252 54.2712 15.9607 54.4129 16.0309C54.5464 16.0985 54.665 16.1932 54.7614 16.309L54.5071 16.5727C54.4436 16.4818 54.3597 16.4078 54.2622 16.3569C54.1681 16.3087 54.0646 16.2825 53.9593 16.2802C53.87 16.2799 53.7815 16.2972 53.6987 16.3314C53.6203 16.3656 53.5486 16.4138 53.4868 16.4736C53.4262 16.5338 53.3777 16.6055 53.3439 16.6846C53.3092 16.7652 53.2916 16.8523 53.2921 16.9403C53.2915 17.0294 53.3091 17.1176 53.3439 17.1993C53.3777 17.2784 53.4262 17.35 53.4868 17.4102C53.5478 17.4714 53.6197 17.5202 53.6987 17.5541C53.7806 17.5893 53.8687 17.6073 53.9577 17.6068C54.0429 17.6071 54.1273 17.5897 54.2057 17.5557C54.2817 17.5242 54.3521 17.4805 54.4145 17.4262V17.2392H54.0158V16.9196H54.7755L54.7771 17.5685Z" fill="#003470"/>
<path d="M57.8773 15.9269L57.0862 17.0953V17.9057H56.7047V17.0905L55.9528 15.9269H56.3908L56.8962 16.7581L57.4237 15.9269H57.8773Z" fill="#003470"/>
<path d="M37.8712 11.3515L40.5067 10.9359V12.7596H41.863V10.7201L42.9524 10.5651V9.35672L41.863 9.48619V1.02614H40.5067V9.70037L37.8712 10.1175V10.1191H36.4396V11.3499" fill="#003470"/>
<path d="M39.4896 7.69765L37.2872 4.9373L36.6656 6.14565L38.8114 8.96354L39.4896 7.69765Z" fill="#003470"/>
<path d="M39.6591 3.21109L38.0203 0.911064L37.3438 2.11941L38.981 4.3619L39.6591 3.21109Z" fill="#003470"/>
<path d="M35.8745 2.11941L35.5919 1.08368L29.999 1.2563L30.2816 2.34797L32.9925 2.23769V4.47218H29.9425V5.68692H32.9925V12.7596H34.2922V9.25123L35.5354 10.2294L35.818 8.96353L34.2922 7.69764V5.68692H35.8745V4.47218H34.2922V2.18334L35.8745 2.11941Z" fill="#003470"/>
<path d="M30.1638 12.0691L31.1794 12.8747L31.9706 6.83454L30.9534 6.03057L30.1638 12.0691Z" fill="#003470"/>
<path d="M18.9701 2.58612H16.9028C16.8721 2.5858 16.842 2.57699 16.8159 2.56063C16.7897 2.54427 16.7684 2.52097 16.7542 2.49323C16.74 2.4655 16.7335 2.43436 16.7353 2.40314C16.7372 2.37193 16.7473 2.34181 16.7647 2.316L17.6264 1.0565H16.2137L15.1682 2.58612V3.76251H18.9701V2.58612Z" fill="#003470"/>
<path d="M17.2073 5.68531H18.5761V4.47217H15.1682V5.68691H15.8369V6.49088H14.9595V7.71841H15.8369V11.1069L14.9595 11.5321L15.2891 12.7037L18.686 11.0302L18.4129 9.857L17.2073 10.442V7.71841H19.0156V6.49088H17.2073V5.68531Z" fill="#003470"/>
<path d="M23.0169 2.37994L22.3042 0.984581L20.9951 1.32023L21.5429 2.37994H20.0532V7.72641H21.6434L19.5635 12.5358L20.8789 12.7596L23.0765 7.72641H24.2271V12.7596H27.1861V11.5321H25.5378V7.72641H26.96V2.37994H23.0169ZM21.4236 3.49878H25.5896V6.49249H21.4267L21.4236 3.49878Z" fill="#003470"/>
<path d="M57.7732 14.2093H0L0.313157 14.6778H58.0864L57.7732 14.2093Z" fill="url(#paint0_linear)"/>
<path d="M57.926 12.0116L54.7504 9.6684L57.4739 7.72641V4.47217H54.3674V2.92337H57.8695V1.65908H54.3674V0.853516H52.9546V1.65908H49.4526V2.92337H52.9546V4.47217H49.7917V5.68692H56.0627V7.26609L53.7568 8.93316L51.1479 7.00715L50.0742 7.75518L52.6972 9.69877L49.3396 12.1267L50.4133 12.7596L53.683 10.4276L56.9088 12.8171L57.926 12.0116Z" fill="#003470"/>
<path d="M48.8938 7.75519L48.6112 6.48929L47.7008 6.79937V4.07419H48.718V2.8083H47.7008V0.968602L46.3634 0.967003V0.968602H46.3461V2.8083H45.1594V4.07419H46.3461H46.3555L46.3461 7.2581L45.0527 7.69764L45.2787 8.96354L46.3414 8.6071L46.3351 10.995L45.3493 12.7628H46.7574L47.6977 11.0174H47.7008V11.0126V11.011V11.0094V8.15317L48.8938 7.75519Z" fill="#003470"/>
<path d="M25.7246 2.14338L26.6461 0.345244L25.3197 0L24.1502 2.30002C24.1283 2.33812 24.0938 2.36703 24.0529 2.38154H25.8282C25.8058 2.37323 25.7852 2.36039 25.7678 2.34379C25.7503 2.32719 25.7363 2.30717 25.7266 2.28493C25.717 2.26269 25.7118 2.23869 25.7115 2.21436C25.7111 2.19004 25.7156 2.1659 25.7246 2.14338Z" fill="#2BBFED"/>
<path d="M12.2015 4.47058H0V5.68532H12.2015V4.47058Z" fill="#003470"/>
<path d="M10.4512 4.00706H11.8074V1.02295H0.282532V4.00706H1.63877V3.4908H9.73541V2.59732H1.63877V1.88606H10.4512" fill="#003470"/>
<path d="M6.72313 12.01V11.4346H11.7462V10.6354H6.72313V10.06H11.8075V6.48769H0.28255V10.0536H5.36689V10.629H0.28255V11.4282H5.36689V12.0036H0V12.7516H12.2046V12.0036L6.72313 12.01ZM6.72313 8.67423H9.73543V7.87505H6.72313V7.29965H10.4512V7.87505V8.67423V9.24803H6.72313V8.67423ZM5.36689 7.87505V8.67423V9.24803H1.63879V8.67423H4.65423V7.87505H1.63879V7.29965H5.36689V7.87505Z" fill="#003470"/>
<defs>
<linearGradient id="paint0_linear" x1="5.02693e-07" y1="14.3449" x2="0.13179" y2="17.2151" gradientUnits="userSpaceOnUse">
<stop stop-color="#2BBFED"/>
<stop offset="1" stop-color="#003470"/>
</linearGradient>
</defs>
</svg>
