<svg width="160" height="26" viewBox="0 0 160 26" fill="none" xmlns="http://www.w3.org/2000/svg">
<path d="M40.0369 24.4896C40.0373 24.6534 40.0099 24.8161 39.9559 24.9707C39.9034 25.1218 39.8251 25.2626 39.7246 25.3871L40.0114 25.6692L39.683 26L39.3892 25.7016C39.2653 25.7863 39.1297 25.8525 38.9868 25.8982C38.8375 25.9472 38.6813 25.9714 38.5242 25.9699C38.3232 25.9721 38.124 25.9327 37.939 25.8543C37.5793 25.7046 37.291 25.4222 37.1341 25.0656C37.056 24.8828 37.0157 24.6861 37.0157 24.4873C37.0157 24.2885 37.056 24.0918 37.1341 23.9091C37.2881 23.5499 37.5772 23.2657 37.939 23.118C38.1239 23.0389 38.3231 22.9987 38.5242 23.0001C38.726 22.9989 38.9259 23.0391 39.1117 23.118C39.4735 23.2657 39.7626 23.5499 39.9166 23.9091C39.9957 24.0915 40.0359 24.2885 40.0346 24.4873L40.0369 24.4896ZM39.4933 24.4873C39.4939 24.3592 39.4679 24.2324 39.417 24.1149C39.3679 24 39.2973 23.8956 39.2088 23.8073C39.1216 23.717 39.017 23.6454 38.9012 23.5968C38.7819 23.5464 38.6537 23.5205 38.5242 23.5205C38.3947 23.5205 38.2665 23.5464 38.1472 23.5968C37.9172 23.6995 37.7345 23.8854 37.636 24.1172C37.5373 24.3557 37.5373 24.6236 37.636 24.862C37.6857 24.9759 37.7563 25.0794 37.8442 25.1673C37.9329 25.2552 38.0372 25.3258 38.1518 25.3755C38.2709 25.4267 38.3992 25.4527 38.5288 25.4518C38.6165 25.4525 38.7039 25.44 38.7879 25.4148C38.869 25.3921 38.9468 25.3586 39.0192 25.3154L38.7509 25.054L39.0816 24.7255L39.3453 24.9985C39.444 24.8472 39.4963 24.6703 39.4956 24.4896" fill="white"/>
<path d="M44.6767 23.0669V24.6189C44.6776 24.8005 44.6487 24.981 44.5911 25.1532C44.5363 25.3081 44.4523 25.451 44.3436 25.5742C44.2331 25.6984 44.0975 25.7977 43.9458 25.8656C43.7771 25.9378 43.5949 25.9732 43.4115 25.9697C43.2298 25.9722 43.0496 25.9375 42.8818 25.8679C42.7294 25.802 42.5923 25.7051 42.4794 25.5834C42.3651 25.457 42.2771 25.3092 42.2203 25.1486C42.159 24.9796 42.1284 24.801 42.1301 24.6212V23.0669H42.6852V24.6421C42.685 24.7471 42.7006 24.8516 42.7315 24.952C42.761 25.0437 42.8073 25.1292 42.8679 25.2041C42.9311 25.2774 43.0102 25.3351 43.0992 25.3729C43.1952 25.4158 43.2994 25.4371 43.4045 25.4354C43.5131 25.4385 43.621 25.4188 43.7214 25.3776C43.8113 25.3423 43.8908 25.2851 43.9527 25.211C44.013 25.1384 44.0579 25.0542 44.0846 24.9636C44.116 24.8617 44.1316 24.7556 44.1308 24.649V23.0669H44.6767Z" fill="white"/>
<path d="M49.5616 25.9211H48.9533L48.6897 25.3475H47.3019L47.0336 25.9211H46.4253L47.776 23.0669H48.2086L49.5616 25.9211ZM48.4699 24.8849L48.0073 23.8556L47.5239 24.8849H48.4699Z" fill="white"/>
<path d="M53.9309 25.9215H53.385L52.0944 23.9139V25.9215H51.5508V23.0581H52.173L53.385 24.9246V23.0581H53.9309V25.9215Z" fill="white"/>
<path d="M58.1336 23.5556H57.3425V25.9217H56.7805V23.5556H55.9894V23.0606H58.1336V23.5556Z" fill="white"/>
<path d="M60.7472 23.0606H60.1921V25.9217H60.7472V23.0606Z" fill="white"/>
<path d="M65.3638 25.9215H64.8203L63.5273 23.9139V25.9215H62.9838V23.0581H63.606L64.8203 24.9246V23.0581H65.3638V25.9215Z" fill="white"/>
<path d="M69.4924 23.537H68.1463V24.2032H69.4739V24.6542H68.1463V25.9217H67.6027V23.0606H69.4924V23.537Z" fill="white"/>
<path d="M74.4792 24.4896C74.4807 24.6887 74.4397 24.8859 74.3589 25.0679C74.2802 25.2411 74.1695 25.398 74.0328 25.5305C73.8924 25.6647 73.7285 25.7721 73.5494 25.8473C73.1729 26.0016 72.7509 26.0016 72.3744 25.8473C72.1947 25.7732 72.0307 25.6657 71.891 25.5305C71.7532 25.3985 71.6418 25.2415 71.5626 25.0679C71.4825 24.8848 71.4415 24.6871 71.4423 24.4873C71.4417 24.2861 71.4827 24.0868 71.5626 23.9021C71.7204 23.5442 72.0117 23.2621 72.3744 23.1157C72.7509 22.9615 73.1729 22.9615 73.5494 23.1157C73.9117 23.2631 74.2022 23.5461 74.3589 23.9044C74.4402 24.0879 74.4812 24.2867 74.4792 24.4873V24.4896ZM73.9241 24.4873C73.9249 24.36 73.8989 24.2339 73.8478 24.1172C73.8003 24.0027 73.7303 23.8989 73.6419 23.8119C73.5541 23.7241 73.4505 23.6535 73.3366 23.6038C73.2177 23.5534 73.0899 23.5275 72.9608 23.5275C72.8316 23.5275 72.7038 23.5534 72.5849 23.6038C72.471 23.6535 72.3675 23.7241 72.2796 23.8119C72.1919 23.8995 72.122 24.0031 72.0737 24.1172C72.0231 24.2336 71.997 24.3592 71.997 24.4861C71.997 24.6131 72.0231 24.7387 72.0737 24.8551C72.1212 24.9696 72.1912 25.0734 72.2796 25.1604C72.3675 25.2482 72.471 25.3188 72.5849 25.3685C72.7034 25.4205 72.8314 25.4473 72.9608 25.4473C73.0901 25.4473 73.2181 25.4205 73.3366 25.3685C73.4505 25.3188 73.5541 25.2482 73.6419 25.1604C73.7309 25.0739 73.8009 24.9699 73.8478 24.8551C73.8985 24.7391 73.9245 24.6139 73.9241 24.4873" fill="white"/>
<path d="M81.4064 23.5556H80.6154V25.9217H80.051V23.5556H79.2623V23.0606H81.4064V23.5556Z" fill="white"/>
<path d="M85.3548 25.9217H83.4651V23.0606H85.3548V23.5185H84.0086V24.2032H85.3363V24.6496H84.0086V25.4383H85.3548V25.9217Z" fill="white"/>
<path d="M90.101 25.4055C89.9586 25.5786 89.7812 25.7196 89.5806 25.8195C89.3712 25.9246 89.1395 25.9778 88.9052 25.9745C88.7006 25.9757 88.4978 25.9364 88.3085 25.8588C88.1277 25.7853 87.9628 25.6777 87.8227 25.542C87.6849 25.4105 87.5741 25.2533 87.4966 25.0794C87.4198 24.8963 87.3802 24.6997 87.3802 24.5011C87.3802 24.3026 87.4198 24.106 87.4966 23.9229C87.5741 23.7489 87.6849 23.5918 87.8227 23.4603C87.9622 23.3238 88.1273 23.2161 88.3085 23.1434C88.4978 23.0659 88.7006 23.0266 88.9052 23.0278C89.1394 23.0255 89.3708 23.0786 89.5806 23.1827C89.777 23.279 89.9511 23.4153 90.0918 23.5829L89.7078 23.9784C89.6192 23.8506 89.502 23.7453 89.3655 23.6708C89.2377 23.6021 89.0962 23.563 88.9513 23.5562C88.8064 23.5494 88.6618 23.5751 88.5282 23.6315C88.4126 23.6805 88.3074 23.7512 88.2183 23.8396C88.1299 23.9271 88.0592 24.0307 88.0101 24.1449C87.9583 24.2606 87.9315 24.3859 87.9315 24.5127C87.9315 24.6395 87.9583 24.7648 88.0101 24.8805C88.1116 25.1054 88.2941 25.2838 88.5213 25.3801C88.6404 25.4311 88.7687 25.457 88.8983 25.4564C89.0605 25.4589 89.2204 25.4173 89.3609 25.3361C89.4963 25.257 89.6124 25.1487 89.7009 25.0192L90.101 25.4055Z" fill="white"/>
<path d="M94.3291 25.9217H93.774V24.6542H92.6476V25.9217H92.0925V23.0606H92.6476V24.1962H93.774V23.0606H94.3291V25.9217Z" fill="white"/>
<path d="M98.9481 25.9215H98.4045L97.1116 23.9139V25.9215H96.5681V23.0581H97.1902L98.4045 24.9246V23.0581H98.9481V25.9215Z" fill="white"/>
<path d="M104.113 24.4894C104.114 24.6885 104.073 24.8857 103.993 25.0677C103.915 25.2418 103.805 25.3991 103.666 25.5303C103.526 25.665 103.363 25.7725 103.183 25.8471C102.807 26.0012 102.386 26.0012 102.01 25.8471C101.83 25.7725 101.666 25.665 101.525 25.5303C101.387 25.3983 101.275 25.2413 101.196 25.0677C101.117 24.8845 101.077 24.6867 101.078 24.4871C101.077 24.286 101.117 24.0868 101.196 23.9019C101.275 23.7283 101.387 23.5713 101.525 23.4393C101.665 23.3045 101.83 23.1978 102.01 23.1248C102.287 23.0106 102.592 22.9798 102.886 23.0361C103.18 23.0924 103.451 23.2333 103.666 23.4417C103.804 23.5731 103.915 23.7303 103.993 23.9042C104.074 24.0877 104.115 24.2865 104.113 24.4871V24.4894ZM103.558 24.4871C103.559 24.3599 103.534 24.2338 103.484 24.117C103.435 24.0034 103.365 23.8999 103.278 23.8117C103.19 23.7233 103.085 23.6526 102.97 23.6036C102.853 23.5526 102.726 23.5266 102.598 23.5272C102.468 23.5264 102.34 23.5524 102.221 23.6036C102.106 23.6526 102.002 23.7233 101.913 23.8117C101.826 23.8999 101.757 24.0034 101.707 24.117C101.659 24.2339 101.634 24.3593 101.634 24.486C101.634 24.6126 101.659 24.738 101.707 24.8549C101.806 25.086 101.99 25.27 102.221 25.3684C102.339 25.4214 102.468 25.4482 102.598 25.447C102.726 25.4479 102.853 25.4211 102.97 25.3684C103.201 25.27 103.385 25.086 103.484 24.8549C103.534 24.7388 103.559 24.6135 103.558 24.4871" fill="white"/>
<path d="M108.184 25.9217H106.248V23.0606H106.812V25.3851H108.184V25.9217Z" fill="white"/>
<path d="M112.946 24.4896C112.946 24.6886 112.905 24.8855 112.826 25.0679C112.747 25.2417 112.635 25.3987 112.497 25.5305C112.358 25.6651 112.195 25.7726 112.016 25.8473C111.64 26.0016 111.218 26.0016 110.841 25.8473C110.661 25.7727 110.496 25.6652 110.356 25.5305C110.218 25.3984 110.108 25.2414 110.029 25.0679C109.948 24.8853 109.907 24.6872 109.909 24.4873C109.907 24.2859 109.948 24.0865 110.029 23.9021C110.108 23.7286 110.218 23.5716 110.356 23.4395C110.642 23.1612 111.027 23.0055 111.426 23.0055C111.826 23.0055 112.21 23.1612 112.497 23.4395C112.635 23.5715 112.747 23.7285 112.826 23.9021C112.906 24.086 112.947 24.2845 112.946 24.485V24.4896ZM112.391 24.485C112.392 24.3576 112.366 24.2315 112.315 24.1149C112.266 24.0008 112.196 23.8971 112.109 23.8096C112.02 23.7212 111.916 23.6505 111.801 23.6014C111.68 23.5508 111.55 23.5264 111.419 23.5297C111.29 23.5289 111.162 23.5549 111.042 23.6061C110.929 23.6558 110.825 23.7264 110.737 23.8142C110.649 23.9012 110.579 24.005 110.531 24.1195C110.458 24.2941 110.438 24.4867 110.475 24.6726C110.511 24.8585 110.603 25.0291 110.737 25.1627C110.825 25.2505 110.929 25.3212 111.042 25.3709C111.161 25.4239 111.29 25.4507 111.419 25.4495C111.548 25.4507 111.675 25.4239 111.792 25.3709C111.907 25.3218 112.011 25.2511 112.099 25.1627C112.188 25.0757 112.258 24.9719 112.305 24.8574C112.356 24.7414 112.382 24.6162 112.382 24.4896" fill="white"/>
<path d="M117.713 25.3939C117.636 25.4912 117.547 25.5789 117.449 25.6553C117.355 25.7253 117.255 25.7857 117.149 25.8357C117.047 25.8818 116.941 25.9167 116.832 25.9398C116.522 26.0061 116.2 25.9779 115.907 25.8588C115.726 25.7864 115.561 25.6796 115.421 25.5443C115.282 25.4128 115.17 25.2557 115.09 25.0817C115.009 24.8966 114.968 24.6963 114.97 24.4942C114.968 24.295 115.009 24.0978 115.09 23.9159C115.168 23.7414 115.279 23.5841 115.419 23.4533C115.56 23.3178 115.725 23.2102 115.907 23.1365C116.096 23.0573 116.3 23.0172 116.506 23.0185C116.738 23.0159 116.968 23.0674 117.176 23.1689C117.373 23.2668 117.548 23.4037 117.69 23.5713L117.315 23.9529C117.222 23.8214 117.098 23.7143 116.954 23.6407C116.816 23.5709 116.663 23.533 116.508 23.5297C116.376 23.5292 116.246 23.5543 116.124 23.6037C116.009 23.6533 115.903 23.723 115.812 23.8095C115.722 23.8967 115.651 24.0004 115.601 24.1149C115.55 24.2315 115.524 24.3576 115.525 24.4849C115.524 24.6138 115.55 24.7414 115.601 24.8596C115.651 24.9741 115.722 25.0778 115.812 25.1649C115.902 25.2535 116.008 25.3241 116.124 25.3731C116.245 25.4241 116.375 25.4501 116.506 25.4494C116.631 25.4498 116.756 25.4246 116.871 25.3754C116.983 25.3298 117.087 25.2666 117.179 25.1881V24.9175H116.591V24.4549H117.711L117.713 25.3939Z" fill="white"/>
<path d="M122.281 23.0606L121.115 24.7514V25.924H120.553V24.7444L119.445 23.0606H120.091L120.835 24.2633L121.613 23.0606H122.281Z" fill="white"/>
<path d="M92.8024 16.4266L96.6859 15.8252V18.4643H98.6843V15.513L100.289 15.2886V13.54L98.6843 13.7274V1.48489H96.6859V14.0373L92.8024 14.641V14.6433H90.693V16.4243" fill="white"/>
<path d="M95.1871 11.1392L91.942 7.14474L91.0261 8.89334L94.1879 12.9711L95.1871 11.1392Z" fill="white"/>
<path d="M95.4369 4.64662L93.0222 1.31827L92.0253 3.06687L94.4377 6.31195L95.4369 4.64662Z" fill="white"/>
<path d="M89.8604 3.06713L89.4441 1.56833L81.203 1.81813L81.6194 3.39788L85.6138 3.23828V6.4718H81.1198V8.22965H85.6138V18.4645H87.529V13.3876L89.3608 14.8031L89.7772 12.9712L87.529 11.1394V8.22965H89.8604V6.4718H87.529V3.15965L89.8604 3.06713Z" fill="white"/>
<path d="M81.4459 17.4648L82.9423 18.6305L84.1081 9.88986L82.6093 8.72644L81.4459 17.4648Z" fill="white"/>
<path d="M64.9522 3.74237H61.906C61.8608 3.7419 61.8165 3.72915 61.7779 3.70548C61.7393 3.6818 61.7079 3.64809 61.687 3.60796C61.6661 3.56782 61.6565 3.52276 61.6592 3.47758C61.662 3.43241 61.6769 3.38883 61.7025 3.35148L62.9723 1.52887H60.8906L59.3502 3.74237V5.44471H64.9522V3.74237Z" fill="white"/>
<path d="M62.3547 8.22719H64.3716V6.47165H59.3502V8.2295H60.3355V9.39292H59.0425V11.1693H60.3355V16.0727L59.0425 16.688L59.5283 18.3834L64.5335 15.9617L64.1311 14.264L62.3547 15.1106V11.1693H65.0192V9.39292H62.3547V8.22719Z" fill="white"/>
<path d="M70.915 3.44381L69.8649 1.42459L67.9359 1.91031L68.7431 3.44381H66.5481V11.1807H68.8911L65.8264 18.1404L67.7647 18.4642L71.0029 11.1807H72.6983V18.4642H77.0582V16.6878H74.6296V11.1807H76.7251V3.44381H70.915ZM68.5673 5.06288H74.7059V9.39505H68.5719L68.5673 5.06288Z" fill="white"/>
<path fill-rule="evenodd" clip-rule="evenodd" d="M38.2282 20.7613L38.1634 20.2502H37.5505L37.6152 20.7613H38.2282ZM37.6153 20.7616L37.5505 20.2504H37.0023L37.6153 20.7616ZM38.7787 20.2502L38.8434 20.7613H38.2282L38.1634 20.2502H38.7787ZM39.4564 20.7613L39.3916 20.2502H38.7787L38.8435 20.7613H39.4564ZM39.3917 20.2502H40.0046H40.0046H40.6198H40.6198H41.2327L41.2975 20.7613H40.6846H40.6846H40.0694H40.0693H39.4564L39.3917 20.2502ZM41.9105 20.7613L41.8457 20.2502H41.2328L41.2975 20.7613H41.9105ZM41.848 20.2502H42.4609H42.461H43.0738L43.1386 20.7613H42.5257H42.5256H41.9105L41.848 20.2502ZM43.0739 20.2502H43.689H43.6891H44.302L44.3667 20.7613H43.7516H43.7515H43.1386L43.0739 20.2502ZM44.9149 20.2502L44.9797 20.7613H44.3667L44.302 20.2502H44.9149ZM45.5927 20.7613L45.5302 20.2502H44.915L44.9797 20.7613H45.5927ZM45.5303 20.2502H46.1431H46.1432H46.7561H46.7561H47.3713H47.9843H47.9843H48.5972L48.6619 20.7613H48.049H48.049H47.4338H46.8208H46.208H46.2079H45.5927L45.5303 20.2502ZM49.2125 20.2502H48.5973L48.662 20.7613H49.2772H49.2773H49.8901H49.8902H50.5031H50.5031H51.116L51.0545 20.2582L51.1183 20.7613H51.7312L51.6664 20.2502H51.0535H51.0535H50.4383H50.4383H49.8254H49.8254H49.2125H49.2125ZM51.6665 20.2502H52.2794H52.2794H52.8947L52.9594 20.7613H52.3442H52.3442H51.7313L51.6665 20.2502ZM52.8947 20.2502H53.5076H53.5076H54.1228L54.1853 20.7613H53.5724H53.5723H52.9594L52.8947 20.2502ZM54.8006 20.7613H54.1853L54.1229 20.2502H54.7358H55.3487L55.4135 20.7613H54.8006ZM55.3488 20.2502H55.9616H55.9617H56.5769L56.6416 20.7613H56.0265H56.0264H55.4135L55.3488 20.2502ZM57.2546 20.7613H56.6417L56.5769 20.2502H57.1899H57.805H57.8051H58.4179L58.4827 20.7613H57.8676H57.8675H57.2546ZM58.4827 20.7613H59.0957H59.7109L59.6462 20.2502H59.0309H58.418L58.4827 20.7613ZM60.2591 20.2502H59.6463L59.711 20.7613H60.3239H60.324H60.9368H61.5521H62.165L62.1002 20.2502H61.4873H60.8721H60.2592H60.2591ZM62.7131 20.2502H62.1003L62.1651 20.7613H62.7779H62.778H63.3931L63.3284 20.2502H62.7132H62.7131ZM63.3932 20.7613H64.0061H64.6191H65.2343H65.2343H65.8472H66.4601L66.3954 20.2502H65.7824H65.1695H65.1695H64.5543H63.9414H63.3284L63.3932 20.7613ZM66.3954 20.2502H67.0106H67.0106H67.6235L67.6883 20.7613H67.0754H67.0753H66.4602L66.3954 20.2502ZM67.6236 20.2502H68.2388H68.2389H68.8518L68.9165 20.7613H68.3013H68.3013H67.6884L67.6236 20.2502ZM69.5295 20.7613H68.9166L68.8518 20.2502H69.4647H70.08H70.08H70.6929H70.6929H71.3059H71.9211H72.534H72.534H73.1469L73.2117 20.7613H72.5988H72.5987H71.9835H71.3706H70.7577H70.1424H69.5295ZM73.7621 20.2502H73.147L73.2117 20.7613H73.8269H73.827H74.4398L74.375 20.2502H73.7622H73.7621ZM74.4399 20.7613H75.0528H75.6681H76.281H76.894H77.5092H78.1221H78.1221H78.735L78.6702 20.2502H78.0574H78.0573H77.4444H76.8315H76.8315H76.2163H75.6033H74.9904L75.0526 20.7596L74.9881 20.2502H74.3751L74.4399 20.7613ZM78.6703 20.2502H79.2855H79.2855H79.8984L79.9632 20.7613H79.3503H79.3502H78.7351L78.6703 20.2502ZM80.5762 20.7613H79.9633L79.8985 20.2502H80.5138H81.1267H81.7396H81.7396H82.3548H82.3549H82.9678H83.5807H84.1959H84.196H84.8089H84.8089H85.4218L85.4866 20.7613H84.8737H84.2584H83.6455H83.0326H82.4173H81.8044H81.1914H80.5762ZM86.0371 20.2502H85.4219L85.4866 20.7613H86.0995H86.0996H86.7148H87.3277H87.3277H87.9429H88.5558H88.5559H89.1687L89.104 20.2502H88.4911H88.491H87.8782H87.8781H87.263H87.2629H86.65H86.65H86.0371H86.0371ZM89.1688 20.7613H89.7841H90.397H91.0099H91.6251H91.6252H92.2381L92.1733 20.2502H91.5605H91.5604H90.9475H90.9475H90.3322H89.7193H89.1041L89.1688 20.7613ZM92.8511 20.7613H92.2382L92.1734 20.2502H92.7886H92.7887H93.4016H94.0144H94.0145H94.6297L94.6921 20.7613H94.0793H94.0792H93.4663H92.8511ZM94.6298 20.2502H95.2425H95.2427H95.8555L95.9202 20.7613H95.3075H95.3073H94.6922L94.6298 20.2502ZM96.5333 20.7613H95.9204L95.8556 20.2502H96.4708H96.4709H97.0838L97.1485 20.7613H96.5333ZM97.7615 20.7613H97.1486L97.0838 20.2502H97.6967H97.6968H98.312H98.9249H98.9249H99.5378H99.5379H100.153L100.218 20.7613H99.6026H99.6025H98.9897H98.3767H97.7615ZM100.766 20.2502H100.153L100.218 20.7613H100.831H100.831H101.444H102.059H102.672H103.285H103.9H104.513H105.126H105.741H106.354H106.967H107.582H108.195H108.808H109.423H110.036H110.652H111.265H111.878H112.493H113.106H113.106H113.719L113.656 20.2502H113.041H113.041H112.428H112.428H111.813H111.813H111.2H110.587H110.587H109.972H109.972H109.359H109.359H108.746H108.746H108.131H107.518H106.905H106.289H105.676H105.063H104.448H103.835H103.222H102.607H102.607H101.994H101.994H101.381H101.381H100.766H100.766ZM113.719 20.7613H114.334H114.947H115.56H116.175H116.788H116.788H117.401L117.338 20.2502H116.723H116.723H116.11H116.11H115.497H115.497H114.882H114.269H114.269H113.656L113.719 20.7613ZM117.951 20.2502H117.338L117.401 20.7613H118.016H118.016H118.629L118.564 20.2502H117.951H117.951ZM118.629 20.7613H119.242H119.857H120.47L120.405 20.2502H119.792H119.792H119.18H118.564L118.629 20.7613ZM121.085 20.7613H120.47L120.405 20.2502H121.021H121.021H121.633H121.634H122.246H122.353V20.7613H122.311H121.698H121.085Z" fill="url(#paint0_linear)"/>
<path d="M122.353 17.3816L117.674 13.9908L121.687 11.1806V6.47137H117.109V4.23012H122.27V2.40056H117.109V1.23483H115.028V2.40056H109.867V4.23012H115.028V6.47137H110.367V8.22922H119.607V10.5144L116.21 12.9268L112.365 10.1397L110.783 11.2222L114.648 14.0348L109.701 17.5481L111.283 18.4641L116.101 15.0895L120.854 18.5473L122.353 17.3816Z" fill="white"/>
<path d="M109.044 11.2223L108.628 9.39048L107.286 9.83919V5.8956H108.785V4.06373H107.286V1.40151L105.316 1.3992V1.40151H105.29V4.06373H103.541V5.8956H105.29H105.304L105.29 10.503L103.384 11.1391L103.717 12.9709L105.283 12.4552L105.274 15.9107L103.821 18.4688H105.896L107.282 15.9431H107.286V15.9362V15.9338V15.9315V11.7983L109.044 11.2223Z" fill="white"/>
<path d="M74.9049 3.10168L76.2626 0.4996L74.3081 0L72.585 3.32835C72.5527 3.38349 72.5019 3.42531 72.4416 3.44631H75.0575C75.0244 3.43429 74.9941 3.41571 74.9684 3.39169C74.9427 3.36767 74.922 3.33869 74.9078 3.30651C74.8935 3.27432 74.8859 3.23959 74.8854 3.20439C74.8849 3.1692 74.8915 3.13426 74.9049 3.10168Z" fill="#2BBFED"/>
<path d="M54.9786 6.46939H37V8.22724H54.9786V6.46939Z" fill="white"/>
<path d="M52.3997 5.79889H54.3981V1.48059H37.4164V5.79889H39.4147V5.0518H51.345V3.75886H39.4147V2.72959H52.3997" fill="white"/>
<path d="M46.9064 17.3799V16.5473H54.3079V15.3908H46.9064V14.5581H54.3981V9.38864H37.4163V14.5489H44.908V15.3815H37.4163V16.538H44.908V17.3707H37V18.4531H54.9833V17.3707L46.9064 17.3799ZM46.9064 12.5528H51.345V11.3963H46.9064V10.5636H52.3997V11.3963V12.5528V13.3831H46.9064V12.5528ZM44.908 11.3963V12.5528V13.3831H39.4147V12.5528H43.8579V11.3963H39.4147V10.5636H44.908V11.3963Z" fill="white"/>
<defs>
<linearGradient id="paint0_linear" x1="37.4628" y1="20.3541" x2="122.39" y2="20.5857" gradientUnits="userSpaceOnUse">
<stop stop-color="#2BBFED"/>
<stop offset="1" stop-color="white" stop-opacity="0.7"/>
</linearGradient>
</defs>
</svg>
